<svg xmlns="http://www.w3.org/2000/svg" viewBox="0 0 68.42 89.61">
  <defs>
    <style>
      .a {
        fill: #fff;
        stroke: #000;
      }

      .a, .c, .d {
        stroke-miterlimit: 10;
      }

      .a, .d {
        stroke-width: 0.25px;
      }

      .b {
        opacity: 0.4;
      }

      .c, .d {
        fill: none;
      }

      .c {
        stroke: #f0f;
        stroke-width: 0.5px;
      }

      .d {
        stroke: #29abe2;
      }
    </style>
  </defs>
  <g>
    <path class="a" d="M61.15,89.49H.12V.12H68.3V82.34A7.16,7.16,0,0,0,61.15,89.49Z"/>
    <g class="b">
      <line class="c" x1="0.13" y1="12.89" x2="68.27" y2="12.89"/>
    </g>
    <g>
      <g class="b">
        <line class="d" x1="0.13" y1="16.47" x2="68.27" y2="16.47"/>
      </g>
      <g class="b">
        <line class="d" x1="0.13" y1="19.02" x2="68.27" y2="19.02"/>
      </g>
      <g class="b">
        <line class="d" x1="0.13" y1="21.57" x2="68.27" y2="21.57"/>
      </g>
      <g class="b">
        <line class="d" x1="0.13" y1="24.13" x2="68.27" y2="24.13"/>
      </g>
      <g class="b">
        <line class="d" x1="0.13" y1="26.68" x2="68.27" y2="26.68"/>
      </g>
      <g class="b">
        <line class="d" x1="0.13" y1="29.23" x2="68.27" y2="29.23"/>
      </g>
      <g class="b">
        <line class="d" x1="0.13" y1="31.78" x2="68.27" y2="31.78"/>
      </g>
      <g class="b">
        <line class="d" x1="0.13" y1="34.34" x2="68.27" y2="34.34"/>
      </g>
      <g class="b">
        <line class="d" x1="0.13" y1="36.89" x2="68.27" y2="36.89"/>
      </g>
      <g class="b">
        <line class="d" x1="0.13" y1="39.44" x2="68.27" y2="39.44"/>
      </g>
      <g class="b">
        <line class="d" x1="0.13" y1="42" x2="68.27" y2="42"/>
      </g>
      <g class="b">
        <line class="d" x1="0.13" y1="46.98" x2="68.27" y2="46.98"/>
      </g>
      <g class="b">
        <line class="d" x1="0.13" y1="49.53" x2="68.27" y2="49.53"/>
      </g>
      <g class="b">
        <line class="d" x1="0.13" y1="52.08" x2="68.27" y2="52.08"/>
      </g>
      <g class="b">
        <line class="d" x1="0.13" y1="54.64" x2="68.27" y2="54.64"/>
      </g>
      <g class="b">
        <line class="d" x1="0.13" y1="57.19" x2="68.27" y2="57.19"/>
      </g>
      <g class="b">
        <line class="d" x1="0.13" y1="59.89" x2="68.27" y2="59.89"/>
      </g>
      <g class="b">
        <line class="d" x1="0.13" y1="62.45" x2="68.27" y2="62.45"/>
      </g>
      <g class="b">
        <line class="d" x1="0.13" y1="65" x2="68.27" y2="65"/>
      </g>
      <g class="b">
        <line class="d" x1="0.13" y1="67.55" x2="68.27" y2="67.55"/>
      </g>
      <g class="b">
        <line class="d" x1="0.13" y1="70.11" x2="68.27" y2="70.11"/>
      </g>
      <g class="b">
        <line class="d" x1="0.13" y1="72.66" x2="68.27" y2="72.66"/>
      </g>
      <g class="b">
        <line class="d" x1="0.13" y1="75.21" x2="68.27" y2="75.21"/>
      </g>
      <g class="b">
        <line class="d" x1="0.13" y1="77.77" x2="68.27" y2="77.77"/>
      </g>
      <g class="b">
        <line class="d" x1="0.13" y1="80.32" x2="68.27" y2="80.32"/>
      </g>
      <g class="b">
        <line class="d" x1="0.13" y1="82.87" x2="67.53" y2="82.87"/>
      </g>
      <g class="b">
        <line class="d" x1="0.13" y1="85.42" x2="63.19" y2="85.42"/>
      </g>
      <g class="b">
        <line class="d" x1="0.13" y1="87.98" x2="63.19" y2="87.98"/>
      </g>
      <g class="b">
        <line class="d" x1="0.13" y1="44.55" x2="68.27" y2="44.55"/>
      </g>
    </g>
    <path class="a" d="M68.24,82.33l-6.6-1.39a.05.05,0,0,0,0,0l-.44,8.41a0,0,0,0,0,.07,0,18.1,18.1,0,0,0,7-7S68.27,82.33,68.24,82.33Z"/>
    <g>
      <path d="M4.7,12.27c0,.06-.07.08-.12.05s-.08-.05,0-.12l.06-.14c0-.06.08-.07.12-.05a.08.08,0,0,1,0,.11Zm.18-.44a.08.08,0,0,1-.12.05.1.1,0,0,1,0-.12l.08-.15a.07.07,0,0,1,0,0s0,0,.06,0a.09.09,0,0,1,.06,0s0,.05,0,.06Zm.18-.44c0,.06,0,.08-.11,0s-.07-.08,0-.12L5,11.17a.09.09,0,0,1,.12-.05.08.08,0,0,1,0,.11Zm0-5.16a.37.37,0,0,1,.12-.14s.09,0,.12,0a.07.07,0,0,1,0,.12.38.38,0,0,0-.11.11s-.06,0-.12,0S5.06,6.28,5.1,6.23Zm.15,4.71c0,.06-.07.08-.12.05a.1.1,0,0,1,0-.12l.07-.14a.1.1,0,0,1,0-.06,0,0,0,0,1,.06,0,.08.08,0,0,1,.05.05,0,0,0,0,1,0,.06Zm.18-.44c0,.06,0,.08-.1.05s-.08-.07,0-.12l.06-.15a.09.09,0,0,1,.12,0,.09.09,0,0,1,0,.11Zm.22-4.67c.06,0,.09,0,.11,0s0,0,0,.06a.12.12,0,0,1,0,0l-.13.07c-.07,0-.11,0-.12,0s0-.08,0-.12Zm0,4.22c0,.06-.08.08-.12,0a.09.09,0,0,1,0-.12l.07-.14a.08.08,0,0,1,0-.05,0,0,0,0,1,.06,0l.05.05a.06.06,0,0,1,0,.06Zm.18-.44c0,.05,0,.07-.11.05a.08.08,0,0,1,0-.12l.06-.14c0-.06.07-.08.12-.05s.06.05,0,.11ZM6,9.17a.1.1,0,0,1-.12,0,.09.09,0,0,1,0-.12L5.9,9l0,0s0,0,.06,0,.08.06,0,.11Zm.13-3.48c.06,0,.1,0,.1.07s0,.08-.08.1L6,5.89s-.09,0-.11-.06,0-.09.07-.11Zm.06,4.68-.1,0L6,10.28c-.08,0-.09-.07,0-.12a.11.11,0,0,1,.12,0l0,0,.07,0a.09.09,0,0,1,.07.09C6.28,10.34,6.25,10.37,6.19,10.37Zm.18-2.09h.06c.06,0,.07.07,0,.12l-.09.14c0,.06-.07.07-.12,0h0l-.06.14a.08.08,0,0,1-.11,0A.08.08,0,0,1,6,8.65l.06-.14a.08.08,0,0,1,.12,0h0l.08-.14H6.25a.1.1,0,0,1,0-.12l.06-.15c0-.05.07-.07.12,0s.08.05,0,.1Zm.26-2.62c.07,0,.09,0,.08.11a.1.1,0,0,1-.1.07H6.45a.07.07,0,0,1-.08-.08.06.06,0,0,1,0-.07l.06,0ZM6.55,7.84a.08.08,0,0,1-.11,0,.09.09,0,0,1-.05-.12l.06-.15a.08.08,0,0,1,.11-.05.08.08,0,0,1,.05.12Zm0,2.54a.06.06,0,0,1-.07,0,.09.09,0,0,1,0-.07.1.1,0,0,1,.09-.09l.15,0c.05,0,.08,0,.1.08s0,.09-.07.09Zm0-2.47c0-.06.07-.07.12,0s.07.07,0,.12l-.1.14a.08.08,0,0,1-.12,0s0-.06,0-.12Zm.17-.52a.08.08,0,0,1-.11.05.09.09,0,0,1,0-.12l.06-.16a.09.09,0,0,1,.11,0q.09,0,.06.12Zm.11.1A.08.08,0,1,1,7,7.58l-.09.15s-.08,0-.12,0a.1.1,0,0,1,0-.12Zm.07-.55c0,.06,0,.08-.11,0s-.08-.05,0-.1l.06-.16a.08.08,0,0,1,.11,0c.07,0,.08.06,0,.12ZM7,5.79,7,5.86A.35.35,0,0,1,7.09,6c0,.07,0,.11,0,.12s-.09,0-.11,0A.09.09,0,0,0,6.9,6l0,0s-.05-.06,0-.12S6.9,5.75,7,5.79Zm.12.7c0,.07-.06.08-.12,0s-.06,0,0-.11l0-.14a.09.09,0,0,1,.09-.08.1.1,0,0,1,.07,0s0,0,0,.06ZM7,10.26a.09.09,0,1,1,0-.17L7.13,10a.11.11,0,0,1,.12.05.09.09,0,0,1,0,.12Zm.1-3.18c0-.06.07-.06.12,0a.08.08,0,0,1,0,.12l-.11.13a.07.07,0,0,1-.12,0s0-.08,0-.12Zm.3-.39a.09.09,0,0,1,.13,0,.08.08,0,0,1,0,.12l-.11.14s-.07,0-.12,0,0-.08,0-.12ZM7.5,10c-.06,0-.1,0-.12,0a.08.08,0,0,1,0-.12l.14-.07a.1.1,0,0,1,.13,0c0,.06,0,.1,0,.12Zm.26-3.72a.09.09,0,0,1,.13,0,.08.08,0,0,1,0,.12l-.12.12a.07.07,0,0,1-.12,0s0-.08,0-.13Zm.16,3.45c0,.05-.09,0-.12,0s0-.08,0-.13l.13-.09a.08.08,0,0,1,.12,0c0,.05,0,.09,0,.12ZM8.13,6a.11.11,0,0,1,.14,0c0,.06,0,.09,0,.12l-.12.11s-.08,0-.12,0,0-.07,0-.12ZM8.3,9.44q-.08.08-.12,0a.07.07,0,0,1,0-.12l.11-.12a.07.07,0,0,1,.12,0q.08,0,0,.12Zm.27-3.73a.09.09,0,0,1,.12,0,.1.1,0,0,1,0,.12l-.13.07c-.06,0-.1,0-.12,0s0-.11,0-.13Zm.08,3.37c-.05.05-.09.05-.13,0a.07.07,0,0,1,0-.12l.1-.12c0-.05.08-.06.12,0s.06.07,0,.12ZM9,8.69a.09.09,0,0,1-.13,0c-.05,0-.05-.07,0-.12l.09-.13s.07-.06.11,0,.07.08,0,.12Zm0-3.09h.18q.11,0,.09.09a.11.11,0,0,1-.1.08H8.93s-.08,0-.1-.06S8.84,5.62,8.9,5.6Zm.31,2.65c0,.06-.07.07-.12,0s-.06-.06,0-.12L9.14,8a.11.11,0,0,1,.12,0c.06,0,.07.07,0,.12Zm.22-.44a.06.06,0,0,1,0,.05,0,0,0,0,1-.06,0,.09.09,0,0,1-.05-.12l.06-.15s.08-.07.12,0,.08,0,.05.1Zm0-2.1.08.06.06.07s0,.09,0,.12a.1.1,0,0,1-.13,0,.1.1,0,0,1,0,0l0,0c-.06,0-.07-.06,0-.11S9.37,5.68,9.43,5.71Zm.18,1.63c0,.06,0,.08-.11.06a.09.09,0,0,1-.06-.11l.05-.15c0-.06,0-.08.11-.06s.07,0,.06.09Zm.11-1.17a.55.55,0,0,1,0,.17c0,.06,0,.09-.08.09a.07.07,0,0,1-.1-.07.31.31,0,0,0,0-.16s0-.08.06-.09S9.7,6.1,9.72,6.17Zm0,.68c0,.07-.05.09-.11.07s-.07,0-.07-.09l0-.16a.11.11,0,0,1,.1-.08.11.11,0,0,1,.07,0,0,0,0,0,1,0,.06Z"/>
      <path d="M8.63,11.83a.09.09,0,0,1-.08.1s0,0-.07,0a.06.06,0,0,1,0-.07v-.18c0-.06,0-.08.08-.07s.09,0,.09.1Zm.16.38a.32.32,0,0,1,0,.13l-.07,0a.09.09,0,0,1-.07,0l-.13-.15a.09.09,0,0,1,0-.07l.05-.06a.11.11,0,0,1,.11,0Zm-.19-.77a.09.09,0,0,1-.06-.11l.05-.17c0-.05.06-.06.12-.05a.08.08,0,0,1,0,.12l0,.15A.09.09,0,0,1,8.6,11.44ZM9,10.69s.06.06,0,.11l-.05.07a.16.16,0,0,1,0,.07c0,.06-.05.07-.11,0a.08.08,0,0,1,0-.12l0-.08s0,0,0-.08S8.91,10.64,9,10.69Zm.23,1.6a.11.11,0,0,1,.1.08c0,.05,0,.08-.08.1l-.18,0a.08.08,0,0,1-.07,0s0,0,0-.07A.08.08,0,0,1,9,12.31Zm0-2c0-.06.08-.06.12,0s.05.09,0,.13l-.11.13s-.07.06-.12,0-.06-.07,0-.12Zm.35-.12a.13.13,0,0,1-.12,0c-.05,0-.05-.09,0-.14l.13-.1a.07.07,0,0,1,.12,0,.09.09,0,0,1,0,.13Zm.11,1.94s.08,0,.13,0,0,.08,0,.12l-.08,0-.08,0c-.05,0-.09,0-.12,0a.08.08,0,0,1,.05-.11Zm.26-2.27s-.08,0-.12,0a.08.08,0,0,1,0-.12l.14-.11c.06,0,.1,0,.12,0a.08.08,0,0,1,0,.12Zm.11,2a.11.11,0,0,1,.13,0,.09.09,0,0,1,0,.13l-.13.12c-.05,0-.09,0-.12,0s0-.09,0-.12Zm.3-2.22s-.08,0-.11,0a.07.07,0,0,1,0-.11l.16-.08c.05,0,.09,0,.1,0s0,.09,0,.11Zm.15,1.85s.05.06,0,.12l-.11.13a.09.09,0,0,1-.13,0c-.05,0-.05-.08,0-.13l.1-.12A.08.08,0,0,1,10.43,11.46Zm.2.46a.07.07,0,0,1-.08.08c-.07,0-.1,0-.1-.08a.31.31,0,0,1,0-.1v-.09c0-.06,0-.08.11-.07s.07,0,.07.1a.25.25,0,0,1,0,.08A.11.11,0,0,0,10.63,11.92Zm0,.26,0,.05,0,0,0,.05a.06.06,0,0,1,0,.06.1.1,0,0,1-.06,0s-.05,0-.08,0l-.07-.07-.06-.09c0-.06,0-.1.05-.12S10.66,12.14,10.68,12.18Zm-.09-.66a.09.09,0,0,1-.06-.11l.05-.16a.09.09,0,0,1,.11-.06c.06,0,.08.06.06.11l-.05.16C10.69,11.52,10.65,11.54,10.59,11.52Zm.15-2.08c-.06,0-.09,0-.11-.06s0-.09.06-.12l.17,0c.06,0,.09,0,.09.07s0,.09-.07.11Zm.13,1.3c.05,0,.06.06.05.12l-.06.14q0,.09-.12.06a.09.09,0,0,1-.05-.12l.06-.15A.09.09,0,0,1,10.87,10.74Zm.08-.4a.08.08,0,0,1,.12,0,.06.06,0,0,1,0,0,0,0,0,0,1,0,.06l-.07.15c0,.06,0,.07-.11,0l0,0s0,0,0-.06Zm.18,1.95s.08,0,.11,0,0,.09-.05.12a.24.24,0,0,1-.18.05c-.06,0-.09,0-.09-.07s0-.1.08-.1h.06Zm.17-2.41s0,.06,0,.12l-.09.14s-.06.06-.12,0a.08.08,0,0,1,0-.12l.08-.14A.08.08,0,0,1,11.3,9.88Zm-.09-.51a.11.11,0,0,1-.1-.08c0-.07,0-.1.1-.1h.16c.06,0,.09,0,.09.1s-.05.09-.1.07Zm.2.11a.07.07,0,0,1,.12,0,.07.07,0,0,1,0,.11l-.09.15a.08.08,0,0,1-.12,0s-.07-.05,0-.12Zm.1,2.56s.08,0,.12,0a.09.09,0,0,1,0,.13l-.14.1a.09.09,0,0,1-.13,0,.08.08,0,0,1,0-.12Zm.33-.34a.09.09,0,0,1,.13,0,.09.09,0,0,1,0,.13l-.1.12c0,.05-.1.05-.14,0a.07.07,0,0,1,0-.12Zm.33-.36s.08-.05.12,0a.09.09,0,0,1,0,.13l-.11.12a.08.08,0,0,1-.12,0c-.05-.05-.05-.09,0-.13Zm.32-.37q0-.08.12,0a.08.08,0,0,1,0,.12l-.12.12s-.07.06-.12,0,0-.07,0-.12Z"/>
      <path d="M11.55,15.19c0,.06-.05.07-.1,0a.1.1,0,0,1-.06-.05s0,0,0-.06l.06-.16a.09.09,0,0,1,.12,0,.09.09,0,0,1,.05.12Zm.21-.46c0,.06-.07.08-.12,0s-.07,0-.05-.12l.07-.14.05-.06a0,0,0,0,1,.06,0,.08.08,0,0,1,.05.12Zm.19-.44a.08.08,0,0,1-.12.05.1.1,0,0,1-.05-.12l.07-.15L11.9,14s0,0,.06,0,0,0,.06,0,0,0,0,.06Zm.19-.44c0,.05-.06.06-.12.05a.11.11,0,0,1,0-.13l.08-.15a.07.07,0,0,1,.1,0c.06,0,.08.07,0,.12Zm.19-.46a.08.08,0,0,1-.12,0,.08.08,0,0,1,0-.11l.07-.16s0-.06.11,0,.07.07,0,.12Zm.2-.44c0,.05-.08.07-.12.05s-.08-.08-.05-.12l.06-.15a.09.09,0,0,1,.12-.05c.05,0,.06.05.05.11Zm.18-.45a.08.08,0,0,1-.11.05.08.08,0,0,1,0-.12l.06-.16a.1.1,0,0,1,.12,0s.06.06,0,.12Zm.19-.45c0,.06-.06.08-.12,0s-.07-.05,0-.1l.06-.16a.08.08,0,0,1,.12-.05c.05,0,.06.08,0,.12Zm0-1.63a.09.09,0,0,1,.13,0s0,.07,0,.12l-.12.11c0,.06-.07.06-.12,0a.08.08,0,0,1,0-.12Zm.23,1.21s-.08.06-.12,0h0c-.05,0-.06-.06-.05-.12l.07-.14a.1.1,0,0,1,0-.06s.05,0,.06,0h.07a.12.12,0,0,1,0,.14Zm.12-.39s0,0,0,0h-.05a.09.09,0,0,1-.05-.12l.06-.16a.1.1,0,0,1,.12,0s.05.06.05.08a.08.08,0,0,1,.1,0,.08.08,0,0,1,0,.12l-.09.13A.08.08,0,0,1,13.25,11.24Zm0-1.24a.09.09,0,0,1,.13,0s0,.07,0,.11l-.11.12c0,.06-.07.06-.12,0a.08.08,0,0,1,0-.12Zm.19.7s0,.05-.05.06a0,0,0,0,1-.06,0,.08.08,0,0,1,0-.05,0,0,0,0,1,0-.06l.06-.15a.08.08,0,0,1,.12-.05.08.08,0,0,1,0,.11Zm.15,1.72h0a.12.12,0,0,1,.07-.07.29.29,0,0,0,.16,0,.08.08,0,0,1,.1.06v0h.11c.06,0,.09,0,.11.07a.11.11,0,0,1-.08.11h-.17c-.07,0-.1,0-.1-.07h-.14a.1.1,0,0,1-.09.06l-.18,0a.08.08,0,0,1-.07-.1.1.1,0,0,1,.11-.07Zm0-2.16c0,.05-.06.06-.12.05s-.06-.08,0-.12l.07-.16s0-.06.11,0,.07.07,0,.12Zm0,.32s.07,0,.12,0,0,.09,0,.13l-.11.12a.08.08,0,0,1-.12,0,.09.09,0,0,1,0-.14Zm0-1a.09.09,0,0,1,.11,0,.12.12,0,0,1,.11,0c.05,0,.06.06.05.12l-.08.14c0,.07-.05.08-.1,0s-.05,0-.06,0v0c-.05,0-.09,0-.12,0s-.06-.08,0-.12Zm.29.64a.09.09,0,0,1,.13,0,.08.08,0,0,1,0,.12l-.11.12s-.08.05-.12,0a.09.09,0,0,1,0-.13Zm.28,2.15c-.06,0-.1,0-.12,0a.09.09,0,0,1,0-.12l.15-.07a.09.09,0,0,1,.12,0,.08.08,0,0,1,0,.12Zm.08-2.5c.05,0,.09,0,.12,0a.07.07,0,0,1,0,.12l-.12.1c0,.05-.09.05-.13,0a.09.09,0,0,1,0-.12Zm.24,2.45c.05,0,.08,0,.11.06a.09.09,0,0,1-.06.11l-.17,0c-.06,0-.09,0-.11-.07s0-.08.07-.11Zm.1-.23a.1.1,0,0,1-.14,0s0-.08,0-.12l.12-.11a.08.08,0,0,1,.12,0,.09.09,0,0,1,0,.13Zm0-2.53c.05-.05.09,0,.12,0s0,.1,0,.12l-.12.1a.09.09,0,1,1-.12-.14ZM15,12.14a.09.09,0,0,1,.12,0c0,.05,0,.09-.05.12l-.15.07c-.07,0-.1,0-.11,0a.08.08,0,0,1,.05-.12Zm0-.43s-.08,0-.12,0-.06-.07,0-.12l.1-.12c.05,0,.09-.05.12,0s0,0,0,.06a0,0,0,0,1,0,.06Zm.15-2.41c.05,0,.09,0,.11,0a.1.1,0,0,1-.05.12L15,9.53a.12.12,0,0,1-.12,0,.16.16,0,0,1,0-.07.07.07,0,0,1,0-.05Zm.14,2c0,.06-.07.07-.12,0s-.06-.08,0-.12l.07-.15a.08.08,0,0,1,.12,0s.06.06,0,.12Zm.11.62a.09.09,0,0,1,.13,0c0,.06,0,.1,0,.12l-.15.09c-.05,0-.09,0-.12,0s0-.1,0-.12Zm.12-1.06a.08.08,0,0,1-.05.05h-.06a.09.09,0,0,1-.05-.12l.06-.15c0-.05.08-.07.12-.05a.08.08,0,0,1,.05.11Zm0-1.61a.29.29,0,0,1,.19.12c0,.07,0,.11,0,.13s-.09,0-.1,0l-.09-.06s-.07,0-.07-.08S15.41,9.25,15.48,9.25Zm.19,1.14s0,0-.05.06a0,0,0,0,1-.06,0c-.05,0-.07,0-.06-.11l0-.15c0-.06.05-.08.11-.06a.09.09,0,0,1,.06.1Zm.1-.49c0,.06,0,.08-.1.08a.08.08,0,0,1-.08-.09V9.73a.1.1,0,0,1,.07-.1.11.11,0,0,1,.07,0s0,0,0,.06Zm0,1.74a.12.12,0,0,1,.14,0,.09.09,0,0,1,0,.13l-.13.1a.09.09,0,0,1-.13,0,.08.08,0,0,1,0-.12Zm.36-.31a.08.08,0,1,1,.12.12l-.12.12a.08.08,0,0,1-.12,0,.09.09,0,0,1,0-.13Zm.33-.35a.08.08,0,0,1,.12,0s0,.09,0,.12l-.11.13c-.05,0-.09,0-.13,0s0-.07,0-.12Z"/>
      <path d="M16.64,11.76c0,.05,0,.08-.07.1s-.08,0-.1-.09v-.18c0-.05,0-.08.09-.08a.09.09,0,0,1,.08.09Zm-.06-.38c-.06,0-.09-.06-.07-.11l0-.17c0-.06.06-.08.1-.06s.09.05.08.11l-.05.15S16.65,11.38,16.58,11.38Zm.15.64a.09.09,0,0,0,0,.06l0,.05s0,.07,0,.12-.07.06-.12,0a.64.64,0,0,1-.12-.15c0-.07,0-.11,0-.12S16.71,12,16.73,12Zm.12-1.43s.06.08,0,.12l-.06.15c0,.05-.06.06-.12.05s-.06-.06-.05-.12l.08-.16C16.74,10.58,16.78,10.56,16.85,10.59Zm.18-.15c0,.05-.08.06-.12,0s-.06-.06,0-.12L17,10.2a.1.1,0,0,1,.14,0s.05.08,0,.12ZM17,11a.08.08,0,0,1-.11-.08c0-.05,0-.09.06-.11l.15,0c.06,0,.1,0,.11.06s0,.09-.06.11Zm.16,1.31s.07,0,.09.08,0,.09-.1.09l-.18,0a.07.07,0,0,1-.06,0,.08.08,0,0,1,0-.07s0-.06.1-.06Zm.18-2.48a.1.1,0,0,1,0,.13l-.11.12c0,.05-.07.06-.12,0s-.06-.07,0-.11l.1-.14A.08.08,0,0,1,17.37,9.79Zm.12,1s-.09,0-.12-.06a.09.09,0,0,1,.06-.11l.15-.06a.09.09,0,0,1,.12.05c0,.06,0,.09-.05.11Zm.14,1.37a.07.07,0,0,1,.1,0c0,.07,0,.11,0,.13l-.17.06a.09.09,0,0,1-.11-.06c0-.06,0-.1.06-.11Zm0-2.71c0-.05.08,0,.12,0a.08.08,0,0,1,0,.12l-.12.1a.08.08,0,0,1-.12,0s0-.07,0-.12Zm.31,1.14c-.05,0-.09,0-.12,0a.09.09,0,0,1,0-.12l.15-.08c.05,0,.09,0,.12,0a.11.11,0,0,1,0,.13Zm.15-1.36a.06.06,0,0,1,.07,0,.09.09,0,0,1,0,.07s0,.08-.07.09l-.15,0a.08.08,0,0,1-.1-.05c0-.05,0-.09,0-.12ZM18,12a.1.1,0,0,1,.12,0s0,.08,0,.11l-.14.1c-.07,0-.11,0-.12,0a.07.07,0,0,1,0-.11Zm.33-1.63q-.08.07-.12,0a.09.09,0,0,1,0-.13l.12-.11a.07.07,0,0,1,.12,0s0,.07,0,.12Zm.05,1.34s.07,0,.12,0,0,.08,0,.12l-.12.11a.09.09,0,0,1-.13,0c0-.05,0-.09,0-.12Zm0-2.23s-.06,0-.06-.09a.09.09,0,0,1,.12-.08l.09.05.08.06s0,.05,0,.08a0,0,0,0,1,0,.05.08.08,0,0,1-.11,0l-.05,0Zm.29.49c0,.06-.07.07-.12,0a.09.09,0,0,1,0-.11.26.26,0,0,0,0-.13.13.13,0,0,1,.09-.09c.07,0,.1,0,.08.11A.62.62,0,0,1,18.68,9.92Zm.06,1.41a.09.09,0,0,1,.12,0,.09.09,0,0,1,0,.13l-.12.12q-.06.08-.12,0a.09.09,0,0,1,0-.13Zm.31-.35a.09.09,0,0,1,.14,0,.08.08,0,0,1,0,.12l-.11.13a.09.09,0,0,1-.13,0c-.05,0-.05-.08,0-.13Z"/>
      <path d="M19.5,10.49a.1.1,0,0,1,.13,0,.07.07,0,0,1,0,.12l-.11.13c-.05,0-.09,0-.13,0s-.05-.09,0-.12Zm.35-.38a.09.09,0,0,1,.12,0,.09.09,0,0,1,0,.13l-.11.13a.09.09,0,0,1-.13,0s0-.08,0-.13Zm.33-.38c0-.05.07-.06.12,0s.06.07,0,.12l-.1.12s-.08,0-.12,0-.06-.07,0-.12Zm.28,2.53c0,.06,0,.1,0,.12s-.1,0-.12,0l-.05-.21a.06.06,0,0,1,0-.06l.07,0s.07,0,.07.08Zm0-.42a.08.08,0,0,1-.12.06s0,0,0,0a.06.06,0,0,1,0-.08l.06-.15c0-.07.07-.08.12-.05a.09.09,0,0,1,0,.12Zm.23-2.4a.4.4,0,0,0,0,.15.13.13,0,0,1-.09.07s0,0-.05,0,0,0,0-.06a.09.09,0,0,1-.1,0,.09.09,0,0,1,0-.13l.11-.12c0-.05.08-.06.12,0h0S20.74,9.4,20.72,9.44Zm0,2c0,.06-.07.07-.12,0a.09.09,0,0,1,0-.12l.09-.15c0-.05.07-.05.12,0a.08.08,0,0,1,0,.12Zm-.08,1,.13,0s.07,0,.12,0,0,.09-.05.12a.64.64,0,0,1-.18.06c-.08,0-.11,0-.1-.09S20.59,12.38,20.63,12.38ZM21,9.71a.1.1,0,0,1,.07,0,.06.06,0,0,1,0,.07c0,.06,0,.09-.08.09h-.17a.1.1,0,0,1-.07,0,0,0,0,0,1,0-.06.09.09,0,0,1,.09-.07ZM21,11a.07.07,0,0,1-.12,0,.09.09,0,0,1,0-.06,0,0,0,0,1,0-.06l.08-.14a.09.09,0,0,1,.12,0,.11.11,0,0,1,0,.13Zm.18,1.08c.05,0,.09,0,.12,0a.08.08,0,0,1,0,.12l-.13.11c-.05,0-.09,0-.12,0s0-.08,0-.12Zm.09-1.52q-.06.08-.12,0c-.06,0-.07-.07,0-.12l.07-.14a.08.08,0,0,1,.11-.05.08.08,0,0,1,.05.12Zm.1-.74a.19.19,0,0,1,.07.12s0,.07,0,.11-.06.09-.11.07-.07,0-.07-.08a.16.16,0,0,0,0-.1s0-.05,0-.09,0,0,.05-.06S21.3,9.77,21.33,9.8Zm.16,1.91a.09.09,0,0,1,.13,0q.07,0,0,.12l-.11.12a.09.09,0,1,1-.13-.12Zm.34-.37a.08.08,0,0,1,.13,0,.09.09,0,0,1,0,.13l-.11.12s-.07,0-.12,0a.09.09,0,0,1,0-.13Zm.33-.38a.09.09,0,0,1,.13,0c.05,0,.05.07,0,.11l-.1.12c-.05.05-.09.06-.12,0s-.06-.08,0-.12Z"/>
    </g>
  </g>
</svg>
