<svg xmlns="http://www.w3.org/2000/svg" viewBox="0 0 400 400">
  <defs>
    <style>
      .a {
        fill: #006837;
      }

      .b, .c, .d {
        fill: #fff;
      }

      .c {
        stroke: #ed1e79;
      }

      .c, .d {
        stroke-miterlimit: 10;
        stroke-width: 0.75px;
      }

      .d {
        stroke: aqua;
      }

      .e {
        fill: #b3b3b3;
      }

      .f {
        fill: #a67c52;
      }
    </style>
  </defs>
  <circle class="a" cx="200" cy="200" r="200"/>
  <g>
    <g>
      <g>
        <g>
          <rect class="b" x="133.38" y="63.85" width="198.32" height="269.88"/>
          <path d="M330.94,64.61V333H134.14V64.61h196.8m1.52-1.52H132.62v271.4H332.46V63.09Z"/>
        </g>
        <line class="c" x1="134.14" y1="90.45" x2="330.94" y2="90.45"/>
        <line class="d" x1="134.14" y1="103.87" x2="330.94" y2="103.87"/>
        <line class="d" x1="134.14" y1="117.29" x2="330.94" y2="117.29"/>
        <line class="d" x1="134.14" y1="130.71" x2="330.94" y2="130.71"/>
        <line class="d" x1="134.14" y1="144.12" x2="330.94" y2="144.12"/>
        <line class="d" x1="134.14" y1="157.54" x2="330.94" y2="157.54"/>
        <line class="d" x1="134.14" y1="170.96" x2="330.94" y2="170.96"/>
        <line class="d" x1="134.14" y1="184.38" x2="330.94" y2="184.38"/>
        <line class="d" x1="134.14" y1="197.8" x2="330.94" y2="197.8"/>
        <line class="d" x1="134.14" y1="211.22" x2="330.94" y2="211.22"/>
        <line class="d" x1="134.14" y1="224.63" x2="330.94" y2="224.63"/>
        <line class="d" x1="134.14" y1="238.05" x2="330.94" y2="238.05"/>
        <line class="d" x1="134.14" y1="251.47" x2="330.94" y2="251.47"/>
        <line class="d" x1="134.14" y1="264.89" x2="330.94" y2="264.89"/>
        <line class="d" x1="134.14" y1="278.31" x2="330.94" y2="278.31"/>
        <line class="d" x1="134.14" y1="291.72" x2="330.94" y2="291.72"/>
        <line class="d" x1="134.14" y1="305.63" x2="330.94" y2="305.63"/>
        <line class="d" x1="134.14" y1="319.05" x2="330.94" y2="319.05"/>
      </g>
      <g>
        <path d="M157.51,83a.34.34,0,0,1,.43-.11.32.32,0,0,1,.22.38.33.33,0,0,1-.08.22,1.46,1.46,0,0,0-.16.19c-.41.52-.82,1-1.24,1.53a10.45,10.45,0,0,1-1.42,1.4,6.19,6.19,0,0,1-2.3,1.17,5.36,5.36,0,0,1-2.58,0,6.32,6.32,0,0,1-2.44-1.16A10.59,10.59,0,0,1,146,84.77a14.35,14.35,0,0,1-1.54-2.53c-.09-.23-.17-.46-.25-.68a4.23,4.23,0,0,1-.19-.72,1.36,1.36,0,0,1-.1-.36c0-.12-.05-.24-.07-.36a.84.84,0,0,1,0-.27.34.34,0,0,1,.11-.24.31.31,0,0,1,.3-.14,1.93,1.93,0,0,1,.34.11,2.05,2.05,0,0,0,.65.1,3.86,3.86,0,0,0,1,0l1-.12a9.57,9.57,0,0,0,5-2.63,8.87,8.87,0,0,0,1.58-2.19,7.9,7.9,0,0,0,.81-2.59,4.85,4.85,0,0,0,0-1.08,3.73,3.73,0,0,0-.25-1.06,1.7,1.7,0,0,0-.64-.78,1.73,1.73,0,0,0-1.07-.26,3.53,3.53,0,0,0-1.84.69A9.77,9.77,0,0,0,149.18,71a17,17,0,0,0-1.62,2c-.49.72-1,1.45-1.41,2.18-.3.5-.59,1-.86,1.49l-.82,1.48a14.78,14.78,0,0,0-.82,1.71c-.23.57-.46,1.15-.71,1.74-.16.39-.32.77-.46,1.14s-.32.76-.5,1.15l-1.33,3.24-.31.72a.35.35,0,0,1-.43.22.33.33,0,0,1-.32-.36.39.39,0,0,1,0-.14.83.83,0,0,0,.07-.13L142,82l.72-1.74a6.8,6.8,0,0,0,.37-.89l.14-.36a1.49,1.49,0,0,1,.17-.36,3.81,3.81,0,0,0,.22-.46c.06-.15.11-.29.16-.43l.34-.85c.38-.93.77-1.86,1.16-2.77s.76-1.84,1.12-2.8c.07-.13.14-.29.21-.46a4.11,4.11,0,0,0,.17-.53,1.56,1.56,0,0,0,.05-.52.55.55,0,0,0-.22-.43,1.12,1.12,0,0,0-.55-.26l-.61-.08a4.47,4.47,0,0,0-.82.08,8.3,8.3,0,0,0-.82.22l-.68.29a2.22,2.22,0,0,0-.62.43,1.85,1.85,0,0,0-.65.85.36.36,0,0,1-.22.23.45.45,0,0,1-.32,0c-.19-.09-.23-.26-.14-.51a1.55,1.55,0,0,1,.26-.57,2.61,2.61,0,0,1,.42-.46,3.3,3.3,0,0,1,1.11-.73,10.73,10.73,0,0,1,1.32-.43,5.13,5.13,0,0,1,1.38-.15,2.23,2.23,0,0,1,1.31.43,1.31,1.31,0,0,1,.58,1,2.64,2.64,0,0,1-.13,1.18c-.16.43-.33.86-.5,1.28s-.34.85-.53,1.28c.44-.66.89-1.31,1.37-1.93a12.48,12.48,0,0,1,1.6-1.73,8.1,8.1,0,0,1,1.59-1.09,3.52,3.52,0,0,1,1.9-.41,2.27,2.27,0,0,1,1.94,1.16,3.15,3.15,0,0,1,.38.92,6.32,6.32,0,0,1,.13,1,6.23,6.23,0,0,1-.37,2.53,10.19,10.19,0,0,1-1.16,2.28,9.45,9.45,0,0,1-2.07,2.21,11.54,11.54,0,0,1-2.64,1.52,9.6,9.6,0,0,1-2.12.59,6.36,6.36,0,0,1-2.22,0,9.82,9.82,0,0,0,.85,2.3,10.31,10.31,0,0,0,1.4,2,8.61,8.61,0,0,0,1.58,1.42,5.87,5.87,0,0,0,1.87.9,4.21,4.21,0,0,0,2.51,0,6,6,0,0,0,2.17-1.25,10.07,10.07,0,0,0,1.26-1.35C156.74,84,157.13,83.48,157.51,83Z"/>
        <path d="M167.89,83a.37.37,0,0,1,.07.54,5.27,5.27,0,0,1-.37.45l-.93.92a5.74,5.74,0,0,1-.82.63,4.17,4.17,0,0,1-.92.46,4.56,4.56,0,0,1-.58.12,1.4,1.4,0,0,1-.61,0l-.31,0a1.58,1.58,0,0,1-.31-.08,1.21,1.21,0,0,1-.3-.14l-.31.31a7.93,7.93,0,0,1-1.2,1,3.75,3.75,0,0,1-1.43.63,2.31,2.31,0,0,1-1.38-.07,1.86,1.86,0,0,1-1-.92,2.8,2.8,0,0,1-.31-1.18,5.36,5.36,0,0,1,.07-1.21,8.21,8.21,0,0,1,.87-2.41,9.38,9.38,0,0,1,1.52-2.06c.34-.34.7-.67,1.09-1a1.61,1.61,0,0,0,.29-.21.47.47,0,0,1,.32-.13.39.39,0,0,1,.38.41.43.43,0,0,1-.17.3l-.27.21a3.54,3.54,0,0,0-.55.44,7.16,7.16,0,0,0-1,1q-.41.54-.75,1.11a7.51,7.51,0,0,0-.58,1.21,9.71,9.71,0,0,0-.34,1,3.68,3.68,0,0,0-.1,1.11,2.13,2.13,0,0,0,.41,1.19,1.08,1.08,0,0,0,1.13.41,3.19,3.19,0,0,0,1.48-.59,6.7,6.7,0,0,0,1.21-1.08,2.55,2.55,0,0,1-.65-1,4.26,4.26,0,0,1-.23-1.18A5.64,5.64,0,0,1,161.3,82a7.87,7.87,0,0,1,.28-1.16,6.27,6.27,0,0,1,.47-1.16,2.83,2.83,0,0,1,.82-1,1.63,1.63,0,0,1,1.15-.29,1.16,1.16,0,0,1,.9.67,2.84,2.84,0,0,1,.34,1.55,5,5,0,0,1-.3,1.59,10.59,10.59,0,0,1-.7,1.54,12.66,12.66,0,0,1-.94,1.4,2,2,0,0,0,1.07.1,3,3,0,0,0,1-.41,7.47,7.47,0,0,0,1.16-1l.72-.75a.67.67,0,0,1,.27-.26A.27.27,0,0,1,167.89,83Zm-5.26,1.84a12.76,12.76,0,0,0,.93-1.36,7.79,7.79,0,0,0,.71-1.52,4.17,4.17,0,0,0,.21-1.69c0-.19-.06-.37-.1-.57a.75.75,0,0,0-.35-.46.52.52,0,0,0-.47,0,1.58,1.58,0,0,0-.41.29,3.46,3.46,0,0,0-.74,1.21,7.41,7.41,0,0,0-.36,1.38,5.77,5.77,0,0,0,0,1.44A2,2,0,0,0,162.63,84.8Z"/>
        <path d="M175.51,83a.3.3,0,0,1,.35-.11.41.41,0,0,1,.29.28.25.25,0,0,1,0,.29l-.2.22L174.62,85a17.93,17.93,0,0,1-2.22,1.82,6.4,6.4,0,0,1-2.66,1.08,4.36,4.36,0,0,1-1.3,0,1.74,1.74,0,0,1-1.13-.63,2.11,2.11,0,0,1-.48-1,3.54,3.54,0,0,1,0-1.08,6.43,6.43,0,0,1,.8-2.62,12.3,12.3,0,0,1,1.59-2.26c.32-.32.66-.63,1-1a2.66,2.66,0,0,1,1.23-.62,1.42,1.42,0,0,1,1.57,1c0,.07.05.17.09.29a1.22,1.22,0,0,1,0,.38.5.5,0,0,1-.1.29c-.06.07-.16.09-.32.07s-.25-.12-.28-.23l-.06-.32a1.07,1.07,0,0,0-.28-.55.53.53,0,0,0-.48-.15,1.57,1.57,0,0,0-.51.19,2.18,2.18,0,0,0-.66.46l-.57.56a11.18,11.18,0,0,0-1.7,2.46,4.6,4.6,0,0,0-.43,1.08,5.43,5.43,0,0,0-.19,1.14,2.64,2.64,0,0,0,.12,1,1.09,1.09,0,0,0,.63.68,1.67,1.67,0,0,0,.67.13,4,4,0,0,0,.7-.06,7.23,7.23,0,0,0,1.36-.45,7.76,7.76,0,0,0,2.41-1.64C174.16,84.37,174.85,83.66,175.51,83Z"/>
        <path d="M186.12,83.06a.39.39,0,0,1,.41-.1.38.38,0,0,1,.28.34.36.36,0,0,1-.09.24c-.05.07-.11.13-.15.2l-.21.26a2.71,2.71,0,0,1-.24.25l-.73.84c-.24.29-.49.58-.77.87s-.48.51-.75.77a6.5,6.5,0,0,1-.87.7,3.71,3.71,0,0,1-1,.46,2.28,2.28,0,0,1-1.07,0,2.13,2.13,0,0,1-1-.51,3.63,3.63,0,0,1-.7-.89,6.34,6.34,0,0,1-.49-1.09c-.14-.39-.27-.75-.38-1.09q-.08-.21-.15-.45a.33.33,0,0,1,.15-.41.29.29,0,0,1,.19-.06.78.78,0,0,0,.22,0,2.31,2.31,0,0,1,.41-.07l.75-.2a12.08,12.08,0,0,0,1.18-.43,5.49,5.49,0,0,0,1.11-.63,4.74,4.74,0,0,0,.65-.55,2.24,2.24,0,0,0,.47-.68,1.35,1.35,0,0,0,.19-.49.88.88,0,0,0,0-.53.49.49,0,0,0-.48-.35,2.06,2.06,0,0,0-.65.11,3.88,3.88,0,0,0-.81.42c-.26.17-.51.35-.76.53s-.62.57-.92.89-.57.64-.82,1A17.49,17.49,0,0,0,177.3,85,21.57,21.57,0,0,0,176,88s0,0,0,0a.13.13,0,0,0,0,.1l-.1.13a.16.16,0,0,1-.21,0,.42.42,0,0,1-.3-.24.5.5,0,0,1,0-.38l.78-2,1.54-3.92c-.23.25-.46.5-.69.77s-.46.51-.71.76a2.09,2.09,0,0,1-.24.28.38.38,0,0,1-.34.1.3.3,0,0,1-.31-.27.45.45,0,0,1,.14-.41c.43-.44.84-.88,1.24-1.33l1.18-1.37.65-.72c0-.13.1-.27.15-.41s.12-.27.19-.41.23-.54.34-.82.23-.54.34-.82l1.2-2.79c.29-.67.6-1.31.9-2s.63-1.26,1-1.88a9.1,9.1,0,0,1,.51-.85,3.58,3.58,0,0,1,.65-.75,2.64,2.64,0,0,1,.85-.48,1.1,1.1,0,0,1,1,.1,1.24,1.24,0,0,1,.63,1,2.53,2.53,0,0,1-.19,1.2,6.55,6.55,0,0,1-.39.8c-.15.26-.3.52-.46.77-.53.77-1.06,1.52-1.61,2.25s-1.11,1.46-1.71,2.18S180.66,78.26,180,79a1.38,1.38,0,0,1-.22.29l-.26.29-.24.27a.38.38,0,0,0-.08.17.48.48,0,0,1-.09.21l-.68,1.67a14.29,14.29,0,0,1,1.28-1.45,8.42,8.42,0,0,1,1.52-1.21,3.29,3.29,0,0,1,.7-.36,3.2,3.2,0,0,1,.78-.2,1.7,1.7,0,0,1,.75.06,1.32,1.32,0,0,1,.64.53,1.59,1.59,0,0,1,.22.72,2.42,2.42,0,0,1-.1.75,2.7,2.7,0,0,1-.36.72,4.23,4.23,0,0,1-.48.58,5.48,5.48,0,0,1-2,1.33,16.5,16.5,0,0,1-2.3.72c.09.23.17.45.24.68a5,5,0,0,0,.27.72,7.78,7.78,0,0,0,.49,1,1.44,1.44,0,0,0,.81.65,1.82,1.82,0,0,0,1.5-.2,3.91,3.91,0,0,0,.85-.65l.75-.75c.39-.39.76-.79,1.11-1.21Zm-2.39-12.91c-.27.44-.52.88-.75,1.34s-.45.91-.68,1.36c-.36.77-.72,1.55-1.06,2.34l-1,2.37c.18-.2.36-.41.53-.63a8,8,0,0,1,.53-.63l1.89-2.42a26.24,26.24,0,0,0,1.73-2.57c.15-.25.32-.55.49-.9a1.29,1.29,0,0,0,.09-1c-.14-.29-.39-.36-.76-.2a1.62,1.62,0,0,0-.54.41Q183.94,69.88,183.73,70.15Z"/>
        <path d="M208.86,68.48a1.93,1.93,0,0,1,.67.8,3.18,3.18,0,0,1,.27,1.06,4.93,4.93,0,0,1,0,1.15c-.06.38-.12.72-.19,1a11.79,11.79,0,0,1-1.06,2.87,16.8,16.8,0,0,1-1.67,2.56,13,13,0,0,1-2,2.1,9.65,9.65,0,0,1-2.51,1.48,4.91,4.91,0,0,1-1.95.48,2.37,2.37,0,0,1-.84,0,1.55,1.55,0,0,1-.76-.34,1.28,1.28,0,0,1-.36-.51.48.48,0,0,1,.08-.58.37.37,0,0,1,.58,0,.24.24,0,0,1,.05.21.19.19,0,0,0,.06.17.71.71,0,0,0,.63.29,3,3,0,0,0,.73,0,6.73,6.73,0,0,0,2.22-.76,10.3,10.3,0,0,0,1.95-1.36,13.67,13.67,0,0,0,2.13-2.41,13.23,13.23,0,0,0,1.52-2.88,10,10,0,0,0,.41-1.2,8.9,8.9,0,0,0,.24-1.23,5.78,5.78,0,0,0,0-1.11,1.69,1.69,0,0,0-.43-1,1.22,1.22,0,0,0-1.09-.4,3.43,3.43,0,0,0-1.16.36,7.25,7.25,0,0,0-.79.53c-.25.19-.5.41-.75.63a20.28,20.28,0,0,0-1.71,1.88,24.2,24.2,0,0,0-1.47,2.08,40.89,40.89,0,0,0-2.76,4.78c-.25.55-.5,1.1-.74,1.66s-.48,1.12-.73,1.69l-1.3,3.07-1,2.36a.46.46,0,0,1-.34.24.36.36,0,0,1-.38-.21.39.39,0,0,1,0-.41l.41-1,2.43-5.87,2.42-5.77c.3-.68.58-1.36.86-2s.53-1.35.78-2l.19-.52a1.07,1.07,0,0,0,.05-.51.8.8,0,0,0-.26-.46,1.23,1.23,0,0,0-.46-.22,3.2,3.2,0,0,0-1.57,0,5.62,5.62,0,0,0-1.47.57l-.54.35a1.68,1.68,0,0,0-.45.47.5.5,0,0,0-.13.22,1.63,1.63,0,0,1-.1.25.31.31,0,0,1-.23.17.37.37,0,0,1-.29,0,.39.39,0,0,1-.17-.53,2.23,2.23,0,0,1,.28-.56,2.88,2.88,0,0,1,.44-.48,4.82,4.82,0,0,1,.51-.38,5.67,5.67,0,0,1,1.33-.59,6.72,6.72,0,0,1,1.4-.29,4.31,4.31,0,0,1,1.22.1,1.63,1.63,0,0,1,1,.65,1.36,1.36,0,0,1,.24,1.12,11,11,0,0,1-.31,1.1L200.91,74c.52-.79,1.08-1.58,1.69-2.35a15.41,15.41,0,0,1,2-2.12,8.78,8.78,0,0,1,.93-.72,4.68,4.68,0,0,1,1.07-.54,2.69,2.69,0,0,1,1.15-.17A2.29,2.29,0,0,1,208.86,68.48Z"/>
        <path d="M217.53,83a.35.35,0,0,1,.46-.07.32.32,0,0,1,.19.41.64.64,0,0,1-.1.22,1,1,0,0,1-.14.15c-.18.19-.35.37-.51.57l-.48.56-1.16,1.3a10.14,10.14,0,0,1-1.26,1.19,3.87,3.87,0,0,1-1.11.67,1.55,1.55,0,0,1-1.28,0,1.2,1.2,0,0,1-.8-1,5.31,5.31,0,0,1,0-1.38,9.75,9.75,0,0,1-1.07,1.18,6.62,6.62,0,0,1-1.28.93,3.84,3.84,0,0,1-1.3.36,1.9,1.9,0,0,1-1.3-.29,1.56,1.56,0,0,1-.66-.82,2.93,2.93,0,0,1-.19-1.06,4.22,4.22,0,0,1,.26-1.26,8.4,8.4,0,0,1,.52-1.19,6.64,6.64,0,0,1,.93-1.45,10.8,10.8,0,0,1,1.19-1.25,13.82,13.82,0,0,1,1.09-.91,8.47,8.47,0,0,1,1.23-.73,7.38,7.38,0,0,1,1.66-.56,5.21,5.21,0,0,1,1.76-.09l.31.05a1,1,0,0,1,.3.09.3.3,0,0,1,.24.22.67.67,0,0,1,0,.34,1.5,1.5,0,0,1-.15.38,2.37,2.37,0,0,0-.14.29c-.2.45-.41.9-.63,1.33s-.45.88-.7,1.33l-.22.41a4.65,4.65,0,0,1-.26.41,3.55,3.55,0,0,1-.2.39,1.84,1.84,0,0,0-.17.43c-.09.25-.18.51-.26.77a5.45,5.45,0,0,0-.18.8,3.39,3.39,0,0,0-.09.67,1.26,1.26,0,0,0,.15.66.58.58,0,0,0,.34.29.79.79,0,0,0,.48,0,2.56,2.56,0,0,0,.51-.19,2.16,2.16,0,0,0,.45-.29l.55-.48a6.14,6.14,0,0,0,.51-.51c.45-.45.88-.92,1.29-1.4Zm-9.39,4.16a3.2,3.2,0,0,0,1.05-.51,10.15,10.15,0,0,0,.87-.75,8.52,8.52,0,0,0,.9-1.06c.29-.39.55-.77.8-1.16a2.26,2.26,0,0,0,.23-.34l.15-.34.31-.65c.09-.23.18-.45.27-.65A6,6,0,0,1,213,81l.53-.93.52-.94a4.38,4.38,0,0,0-1.57.07,5.87,5.87,0,0,0-1.46.51,7.77,7.77,0,0,0-1.25.78,14,14,0,0,0-1.08,1,11.2,11.2,0,0,0-1.12,1.26,7.2,7.2,0,0,0-.85,1.47,6,6,0,0,0-.35,1.06,2.4,2.4,0,0,0,0,1.13,2.44,2.44,0,0,0,.19.44.73.73,0,0,0,.36.31,1.31,1.31,0,0,0,.6.06A3.45,3.45,0,0,0,208.14,87.12Z"/>
        <path d="M229,83a.33.33,0,0,1,.5,0,.32.32,0,0,1,.12.48,1.76,1.76,0,0,1-.24.3c-.09.09-.18.2-.27.31l-.26.26a1.38,1.38,0,0,0-.22.29,17.61,17.61,0,0,1-1.78,1.6,11.65,11.65,0,0,1-2.37,1.38,8.56,8.56,0,0,1-2.68.7,6.33,6.33,0,0,1-1.88-.07l-.54-.1a.37.37,0,0,1-.28-.49.34.34,0,0,1,.48-.26,2.33,2.33,0,0,0,.68.1h.29l.26,0A4.29,4.29,0,0,0,221.9,87a6.29,6.29,0,0,0,1-.63,8.11,8.11,0,0,0,2.18-2.66,9,9,0,0,0,.84-2.14,4.65,4.65,0,0,0,.2-.89c0-.2,0-.42.05-.65a1.14,1.14,0,0,0-.12-.61.37.37,0,0,0-.46-.2,2.06,2.06,0,0,0-.53.17,3.89,3.89,0,0,0-.83.44c-.26.18-.52.38-.77.58s-.63.56-.94.87-.61.62-.9.94-.63.78-.93,1.18-.58.81-.85,1.24a10.15,10.15,0,0,0-.75,1.34,1.4,1.4,0,0,0-.12.18l-.09.19-.17.38-.3.75c-.44,1-.87,2-1.3,3s-.88,2-1.33,3.06c-.18.41-.36.82-.53,1.23s-.35.81-.53,1.19a1.92,1.92,0,0,1-.15.29.31.31,0,0,1-.26.12.39.39,0,0,1-.38-.41.54.54,0,0,1,.06-.25,1.13,1.13,0,0,1,.11-.22l.21-.45,2-4.51,4-9.49q-.48.56-1,1.08c-.31.35-.63.72-1,1.11a.78.78,0,0,1-.33.24.31.31,0,0,1-.35-.14c-.16-.16-.15-.34,0-.55l1.84-2.11c.3-.32.58-.64.86-1l.82-1a.34.34,0,0,1,.49-.06.32.32,0,0,1,.15.47c0,.09-.08.17-.1.23a1.72,1.72,0,0,1-.07.21c-.18.45-.36.89-.54,1.31s-.37.86-.55,1.32c.48-.59,1-1.17,1.54-1.73a9.76,9.76,0,0,1,1.81-1.45l.54-.3a3.27,3.27,0,0,1,.64-.28,1.71,1.71,0,0,1,.63-.08,1.17,1.17,0,0,1,1.09,1,3.42,3.42,0,0,1,.07.94,7.28,7.28,0,0,1-.19,1.3,8,8,0,0,1-.39,1.23A11.46,11.46,0,0,1,225,85.36a7.76,7.76,0,0,1-2,2,8.72,8.72,0,0,0,3.36-1.68A18.42,18.42,0,0,0,229,83Z"/>
        <path d="M236.82,82.92a.33.33,0,0,1,.11.45c-.1.16-.19.29-.28.41l-.82.92-.73.73-.77.74a12.59,12.59,0,0,1-1.86,1.26,3.48,3.48,0,0,1-2.17.44,2,2,0,0,1-1-.36,1.89,1.89,0,0,1-.67-.8,2.6,2.6,0,0,1-.24-1.24,8.59,8.59,0,0,1,.17-1.28,9.73,9.73,0,0,1,1-2.5,8.52,8.52,0,0,1,1.68-2.08,6,6,0,0,1,.89-.68,2.74,2.74,0,0,1,1-.41,2.5,2.5,0,0,1,1.18.08,1.2,1.2,0,0,1,.8.81,1.47,1.47,0,0,1,0,.88,3.06,3.06,0,0,1-.39.79,3.32,3.32,0,0,1-.62.68,8,8,0,0,1-.7.55,7.15,7.15,0,0,1-1.19.63c-.41.17-.83.32-1.26.46l-.41.12a2.77,2.77,0,0,0-.41.12l-.41.1-.11,0-.1,0s0,0,0,.06,0,.07,0,.07a5.85,5.85,0,0,0-.27,1.71c0,.18.06.38.1.58a1.35,1.35,0,0,0,.27.55,1.38,1.38,0,0,0,.86.34,2.19,2.19,0,0,0,.95-.09,7.45,7.45,0,0,0,.93-.36,10,10,0,0,0,1.12-.76c.37-.29.72-.59,1.06-.91a5.66,5.66,0,0,0,.6-.6l.56-.63.62-.75A.34.34,0,0,1,236.82,82.92Zm-3.41-3.65a2.3,2.3,0,0,0-1.08.43,5.92,5.92,0,0,0-.87.76,10,10,0,0,0-1.57,2.43,15.39,15.39,0,0,0,2.14-.72,5.14,5.14,0,0,0,1.82-1.23,1.91,1.91,0,0,0,.58-1c0-.32-.05-.52-.29-.61A1.3,1.3,0,0,0,233.41,79.27Z"/>
        <path d="M245.43,82.75a.37.37,0,0,1,.24.1.58.58,0,0,1,.13.26.29.29,0,0,1-.1.29l-.34.41-1.2,1.33c-.32.39-.64.76-1,1.13a11.73,11.73,0,0,1-1.09,1c-.25.21-.51.4-.77.58a1.83,1.83,0,0,1-.87.34,1.05,1.05,0,0,1-.63-.1,1,1,0,0,1-.41-.39,1.56,1.56,0,0,1-.2-.56,2.15,2.15,0,0,1,0-.62,4.85,4.85,0,0,1,.56-1.57c.29-.5.58-1,.87-1.43.16-.25.32-.5.46-.75l.47-.79.3-.61a1.15,1.15,0,0,0,.14-.65c0-.12-.17-.17-.44-.16l-.55,0a2.42,2.42,0,0,1-.63-.14.68.68,0,0,1-.43-.47c-.39.47-.78.94-1.18,1.38s-.79.89-1.17,1.35l-.65.68a1.57,1.57,0,0,1-.28.21.31.31,0,0,1-.3,0q-.21-.1-.21-.27a.53.53,0,0,1,.14-.34,2.28,2.28,0,0,1,.29-.33l.25-.25c.35-.37.68-.73,1-1.1s.65-.74,1-1.12l1.1-1.33.51-.58a.32.32,0,0,1,.44-.12.36.36,0,0,1,.24.39,1.19,1.19,0,0,1-.13.34,2.79,2.79,0,0,0-.18.34l-.06.19a.41.41,0,0,0,0,.19c0,.09,0,.15,0,.17s.07,0,.18.07a3.75,3.75,0,0,0,.67,0,1.15,1.15,0,0,1,.63.1.84.84,0,0,1,.51.44,1,1,0,0,1,.07.65,4.15,4.15,0,0,1-.55,1.37,7.44,7.44,0,0,1-.44.78l-.48.75c-.25.41-.5.83-.75,1.27a5.18,5.18,0,0,0-.55,1.36,2.77,2.77,0,0,0,0,.51.37.37,0,0,0,.29.38.42.42,0,0,0,.36,0l.32-.18a5.32,5.32,0,0,0,1-.78c.3-.3.59-.6.89-.92l2.35-2.63A.44.44,0,0,1,245.43,82.75Z"/>
        <path d="M269.91,83a.36.36,0,0,1,.29-.15.32.32,0,0,1,.29.12.32.32,0,0,1,.08.37,1.79,1.79,0,0,1-.22.34,7.45,7.45,0,0,1-2.32,2,6.11,6.11,0,0,1-.63.31l-.67.27-.68.21a.53.53,0,0,0-.22.2,2.75,2.75,0,0,1-.19.28,5.2,5.2,0,0,1-1.85,1.38,9.45,9.45,0,0,1-2.21.7c-.35,0-.69.07-1.05.09a5.43,5.43,0,0,1-1-.06,2.62,2.62,0,0,1-.94-.32.88.88,0,0,1-.46-.84,1.1,1.1,0,0,1,.49-1,2.82,2.82,0,0,1,1.08-.43,7.39,7.39,0,0,1,1.53-.17c.5,0,1,0,1.54-.07a12.12,12.12,0,0,0,1.78-.2l.51-.11.22,0a.37.37,0,0,0,.19-.08,3.36,3.36,0,0,0,.19-.38l.15-.41A3.69,3.69,0,0,0,266,83.4a7,7,0,0,0-.36-1.54A15.42,15.42,0,0,0,264,78.62a21.85,21.85,0,0,1-1.78-3.21l-2.8,4.27-4,6.08L254,88a.39.39,0,0,1-.34.23.31.31,0,0,1-.38-.18.42.42,0,0,1,0-.43l.45-.65,3.38-5.15c.54-.85,1.08-1.68,1.62-2.51s1.07-1.66,1.62-2.48l1-1.47.48-.75a.19.19,0,0,0,0-.2l-.09-.21a3.31,3.31,0,0,1-.14-.44,5.2,5.2,0,0,1-.17-1.74,4.73,4.73,0,0,1,.48-1.68,7.61,7.61,0,0,1,.68-1.14,4.55,4.55,0,0,1,1-1,3.21,3.21,0,0,1,.82-.43,1.55,1.55,0,0,1,.93,0,1.06,1.06,0,0,1,.81,1,1.43,1.43,0,0,1-.05.74,3.37,3.37,0,0,1-.32.7,6.79,6.79,0,0,1-.39.6c-.15.19-.29.39-.43.59l-.92,1.3-1,1.47-.31.44s0,.1,0,.17a.67.67,0,0,1,.1.21l.34.71c.28.55.57,1.09.87,1.63l.94,1.58c.28.48.55,1,.82,1.52a8.74,8.74,0,0,1,.65,1.64,7.63,7.63,0,0,1,.28,1.71,4.15,4.15,0,0,1-.31,1.72A7.35,7.35,0,0,0,269.91,83Zm-10.86,5.09a1.11,1.11,0,0,0,.53.2,3.6,3.6,0,0,0,.56,0,3.76,3.76,0,0,0,.75,0q.38,0,.75-.12a8.16,8.16,0,0,0,1.66-.51,5.49,5.49,0,0,0,1.45-.92,14.65,14.65,0,0,1-1.95.2c-.63,0-1.28.06-1.94.1l-.75.07a2.06,2.06,0,0,0-.72.21,1,1,0,0,0-.43.32C258.82,87.82,258.84,88,259.05,88.08Zm3.17-15.67a4.08,4.08,0,0,0,.21,1.33,3,3,0,0,1,.27-.41l.94-1.37c.31-.45.62-.91.94-1.36L265,70a3.23,3.23,0,0,0,.36-.63,2.16,2.16,0,0,0,.05-.58c0-.2-.15-.32-.4-.34a1.19,1.19,0,0,0-.9.27,4.17,4.17,0,0,0-.7.69,5.69,5.69,0,0,0-.85,1.38A3.83,3.83,0,0,0,262.22,72.41Z"/>
        <path d="M278,83a.31.31,0,0,1,.36-.11.45.45,0,0,1,.29.28.27.27,0,0,1,0,.29l-.2.22L277.11,85a17.93,17.93,0,0,1-2.22,1.82,6.35,6.35,0,0,1-2.66,1.08,4.36,4.36,0,0,1-1.3,0,1.74,1.74,0,0,1-1.13-.63,2,2,0,0,1-.47-1,3.54,3.54,0,0,1,0-1.08,6.43,6.43,0,0,1,.8-2.62,12.3,12.3,0,0,1,1.59-2.26c.32-.32.66-.63,1-1a2.59,2.59,0,0,1,1.22-.62,1.43,1.43,0,0,1,1,.21,1.48,1.48,0,0,1,.6.78c0,.07.05.17.08.29a1,1,0,0,1,0,.38.5.5,0,0,1-.1.29c0,.07-.16.09-.32.07s-.25-.12-.28-.23l-.06-.32a1.07,1.07,0,0,0-.28-.55.52.52,0,0,0-.47-.15,1.55,1.55,0,0,0-.52.19,2.18,2.18,0,0,0-.66.46l-.57.56a11.18,11.18,0,0,0-1.7,2.46,4.6,4.6,0,0,0-.43,1.08,6.17,6.17,0,0,0-.19,1.14,2.64,2.64,0,0,0,.12,1,1.09,1.09,0,0,0,.63.68,1.67,1.67,0,0,0,.67.13,4,4,0,0,0,.7-.06,7.34,7.34,0,0,0,1.37-.45,7.83,7.83,0,0,0,2.4-1.64C276.65,84.37,277.34,83.66,278,83Z"/>
        <path d="M284.38,83a.28.28,0,0,1,.12.36,2.37,2.37,0,0,1-.19.35l-.61.69-.89,1c-.29.34-.6.67-.92,1s-.5.48-.75.7a5.58,5.58,0,0,1-.82.6,4.59,4.59,0,0,1-.7.31.88.88,0,0,1-.73,0,.72.72,0,0,1-.38-.39,2.44,2.44,0,0,1-.14-.53,3.29,3.29,0,0,1,.07-1.13c.09-.36.19-.71.31-1.06q.27-.78.6-1.53c.21-.5.45-1,.7-1.54l-1.54,1.81a.37.37,0,0,1-.56.09c-.2-.15-.2-.35,0-.6l.51-.62,2.32-2.66.75-.89a.42.42,0,0,1,.41-.2.48.48,0,0,1,.26.2.34.34,0,0,1,0,.31,1.89,1.89,0,0,1-.09.21,1.51,1.51,0,0,1-.12.2q-.57,1.1-1.11,2.19c-.35.72-.69,1.48-1,2.25-.14.32-.27.64-.38,1s-.22.67-.31,1a2.65,2.65,0,0,0-.07.82c0,.05,0,.12,0,.24s.05.17.12.17a.43.43,0,0,0,.29,0l.26-.13a6.55,6.55,0,0,0,.82-.58c.27-.25.53-.5.77-.75s.48-.5.73-.75c.45-.51.89-1,1.3-1.51.11-.11.25-.27.42-.47S284.2,82.8,284.38,83Zm-.82-8.85a.51.51,0,0,1-.3-.44.9.9,0,0,1,.1-.56,1,1,0,0,1,.39-.4.55.55,0,0,1,.53,0,.66.66,0,0,1,.31.47.92.92,0,0,1-.1.54,1,1,0,0,1-.4.39A.51.51,0,0,1,283.56,74.11Z"/>
        <path d="M292.1,83a.34.34,0,0,1,.54-.09.35.35,0,0,1,.11.53l-.4.51q-.18.24-.42.51a14,14,0,0,1-1,1,11.11,11.11,0,0,1-1.1.94,9,9,0,0,1-2.54,1.42,4.89,4.89,0,0,1-2.88.19,5.27,5.27,0,0,1-1.35-.53,6.19,6.19,0,0,1-1.18-.87,3.22,3.22,0,0,1-.29-.26.64.64,0,0,1-.19-.32.46.46,0,0,1,.09-.29.28.28,0,0,1,.25-.12.36.36,0,0,1,.34.12l.28.29a3.79,3.79,0,0,0,.58.48,4.41,4.41,0,0,0,1.26.64,2.15,2.15,0,0,0,.36.11l.36.07.32,0a1.25,1.25,0,0,0,.33,0,1.4,1.4,0,0,0,.77-.43,2.54,2.54,0,0,0,.46-.77,4.76,4.76,0,0,0,.25-1.19c0-.41.05-.82.05-1.23s0-1.1-.07-1.66a11.91,11.91,0,0,1,0-1.69c-.68.85-1.37,1.64-2.08,2.39l-.61.65a.29.29,0,0,1-.22.12.3.3,0,0,1-.26-.08.34.34,0,0,1-.15-.29.63.63,0,0,1,.12-.31,1,1,0,0,1,.24-.27,2.49,2.49,0,0,0,.23-.23c.53-.59,1-1.18,1.54-1.79s1-1.2,1.54-1.79l.41-.48a.34.34,0,0,1,.51-.07.36.36,0,0,1,.14.48.78.78,0,0,1-.21.29.72.72,0,0,0-.2.29,2.1,2.1,0,0,0-.18.65q0,.35-.06.72a12,12,0,0,0,0,1.7,12.2,12.2,0,0,1,0,1.71,11.07,11.07,0,0,1-.1,1.49,3.81,3.81,0,0,1-.48,1.41,6.83,6.83,0,0,0,1.54-.8,15.74,15.74,0,0,0,1.37-1.07A13.52,13.52,0,0,0,292.1,83Z"/>
        <path d="M300.39,83a.35.35,0,0,1,.55-.09.34.34,0,0,1,.1.53q-.19.27-.39.51l-.43.51a12.24,12.24,0,0,1-1,1,11,11,0,0,1-1.09.94,9.14,9.14,0,0,1-2.54,1.42,4.92,4.92,0,0,1-2.89.19,5.27,5.27,0,0,1-1.35-.53,6.13,6.13,0,0,1-1.17-.87,2.26,2.26,0,0,1-.29-.26.57.57,0,0,1-.19-.32.52.52,0,0,1,.08-.29.31.31,0,0,1,.26-.12.36.36,0,0,1,.34.12l.27.29a5.09,5.09,0,0,0,.58.48,4.46,4.46,0,0,0,1.27.64,1.89,1.89,0,0,0,.36.11l.35.07.33,0a1.17,1.17,0,0,0,.32,0,1.37,1.37,0,0,0,.77-.43,2.35,2.35,0,0,0,.46-.77,4.77,4.77,0,0,0,.26-1.19c0-.41.05-.82.05-1.23s0-1.1-.07-1.66a9.54,9.54,0,0,1,0-1.69c-.68.85-1.38,1.64-2.08,2.39l-.62.65a.27.27,0,0,1-.22.12.28.28,0,0,1-.25-.08.33.33,0,0,1-.16-.29.63.63,0,0,1,.12-.31,1.55,1.55,0,0,1,.24-.27l.24-.23c.52-.59,1-1.18,1.54-1.79s1-1.2,1.53-1.79l.41-.48a.34.34,0,0,1,.51-.07.35.35,0,0,1,.14.48.66.66,0,0,1-.2.29.86.86,0,0,0-.21.29,2.08,2.08,0,0,0-.17.65c0,.23-.05.47-.07.72a13.74,13.74,0,0,0,0,1.7,16.26,16.26,0,0,1,0,1.71,11.07,11.07,0,0,1-.1,1.49,3.81,3.81,0,0,1-.48,1.41,6.83,6.83,0,0,0,1.54-.8,15.6,15.6,0,0,0,1.36-1.07A13,13,0,0,0,300.39,83Z"/>
        <path d="M310.81,83a.38.38,0,0,1,.07.54,5.16,5.16,0,0,1-.38.45l-.92.92a6.37,6.37,0,0,1-.82.63,4.4,4.4,0,0,1-.92.46,5.41,5.41,0,0,1-.58.12,1.44,1.44,0,0,1-.62,0l-.31,0a1.35,1.35,0,0,1-.3-.08,1.32,1.32,0,0,1-.31-.14l-.31.31a7.85,7.85,0,0,1-1.19,1,3.73,3.73,0,0,1-1.44.63,2.32,2.32,0,0,1-1.38-.07,1.9,1.9,0,0,1-1-.92,3,3,0,0,1-.31-1.18,5.36,5.36,0,0,1,.07-1.21A8.21,8.21,0,0,1,301,82a9.72,9.72,0,0,1,1.52-2.06c.34-.34.71-.67,1.09-1a1.61,1.61,0,0,0,.29-.21.5.5,0,0,1,.33-.13.38.38,0,0,1,.37.41.43.43,0,0,1-.17.3l-.27.21a3.54,3.54,0,0,0-.55.44,7.08,7.08,0,0,0-1,1,11.38,11.38,0,0,0-.75,1.11,6.75,6.75,0,0,0-.58,1.21,7.89,7.89,0,0,0-.34,1,3.38,3.38,0,0,0-.11,1.11,2.21,2.21,0,0,0,.41,1.19,1.09,1.09,0,0,0,1.13.41,3.23,3.23,0,0,0,1.49-.59A7.05,7.05,0,0,0,305,85.38a2.35,2.35,0,0,1-.65-1,3.93,3.93,0,0,1-.24-1.18,5.65,5.65,0,0,1,.07-1.23,9.41,9.41,0,0,1,.27-1.16,5.7,5.7,0,0,1,.48-1.16,2.73,2.73,0,0,1,.82-1,1.59,1.59,0,0,1,1.14-.29,1.2,1.2,0,0,1,.91.67,2.93,2.93,0,0,1,.34,1.55,5,5,0,0,1-.31,1.59,8.82,8.82,0,0,1-.7,1.54,11.4,11.4,0,0,1-.94,1.4,2,2,0,0,0,1.08.1,2.9,2.9,0,0,0,1-.41,7.55,7.55,0,0,0,1.17-1l.71-.75a.64.64,0,0,1,.28-.26C310.58,82.81,310.69,82.84,310.81,83Zm-5.26,1.84a14.22,14.22,0,0,0,.92-1.36,7.83,7.83,0,0,0,.72-1.52,4.16,4.16,0,0,0,.2-1.69,4,4,0,0,0-.1-.57.77.77,0,0,0-.34-.46.54.54,0,0,0-.48,0,1.58,1.58,0,0,0-.41.29,3.44,3.44,0,0,0-.73,1.21A7.41,7.41,0,0,0,305,82.1a5.32,5.32,0,0,0,0,1.44A2.08,2.08,0,0,0,305.55,84.8Z"/>
        <path d="M319.44,82.75a.37.37,0,0,1,.24.1.51.51,0,0,1,.14.26.31.31,0,0,1-.1.29l-.34.41-1.2,1.33c-.32.39-.65.76-1,1.13a13.15,13.15,0,0,1-1.09,1c-.25.21-.51.4-.77.58a1.83,1.83,0,0,1-.87.34,1.05,1.05,0,0,1-.63-.1,1,1,0,0,1-.41-.39,1.8,1.8,0,0,1-.21-.56,2.15,2.15,0,0,1,0-.62,4.63,4.63,0,0,1,.56-1.57c.28-.5.57-1,.87-1.43.16-.25.31-.5.46-.75l.46-.79.31-.61a1.24,1.24,0,0,0,.14-.65c0-.12-.17-.17-.45-.16l-.54,0a2.6,2.6,0,0,1-.64-.14A.69.69,0,0,1,314,80c-.39.47-.78.94-1.18,1.38s-.79.89-1.18,1.35l-.65.68a1.24,1.24,0,0,1-.27.21.33.33,0,0,1-.31,0,.31.31,0,0,1-.2-.27.52.52,0,0,1,.13-.34,3.11,3.11,0,0,1,.29-.33l.26-.25c.34-.37.68-.73,1-1.1s.65-.74,1-1.12l1.09-1.33.51-.58a.34.34,0,0,1,.45-.12.36.36,0,0,1,.24.39,1.22,1.22,0,0,1-.14.34,2.7,2.7,0,0,0-.17.34c0,.07-.05.13-.07.19a.58.58,0,0,0,0,.19.28.28,0,0,0,0,.17s.07,0,.19.07a3.75,3.75,0,0,0,.67,0,1.17,1.17,0,0,1,.63.1.84.84,0,0,1,.51.44,1.11,1.11,0,0,1,.07.65,4.38,4.38,0,0,1-.55,1.37c-.14.27-.28.53-.44.78l-.48.75c-.25.41-.5.83-.75,1.27a4.86,4.86,0,0,0-.55,1.36,2.67,2.67,0,0,0,0,.51.38.38,0,0,0,.29.38.42.42,0,0,0,.36,0l.33-.18a5.32,5.32,0,0,0,1-.78l.89-.92,2.35-2.63A.4.4,0,0,1,319.44,82.75Z"/>
        <path d="M327.37,83a.39.39,0,0,1,.64.44q-.19.27-.39.51c-.12.16-.27.33-.43.51a10.84,10.84,0,0,1-1,1,11,11,0,0,1-1.09.94,9.14,9.14,0,0,1-2.54,1.42,4.92,4.92,0,0,1-2.89.19,5.42,5.42,0,0,1-1.35-.53,6.13,6.13,0,0,1-1.17-.87,3.22,3.22,0,0,1-.29-.26.57.57,0,0,1-.19-.32.52.52,0,0,1,.08-.29.31.31,0,0,1,.26-.12.36.36,0,0,1,.34.12l.27.29a5.09,5.09,0,0,0,.58.48,4.46,4.46,0,0,0,1.27.64,1.89,1.89,0,0,0,.36.11l.36.07.32,0a1.17,1.17,0,0,0,.32,0,1.37,1.37,0,0,0,.77-.43,2.35,2.35,0,0,0,.46-.77,4.77,4.77,0,0,0,.26-1.19c0-.41.05-.82.05-1.23s0-1.1-.07-1.66a11.91,11.91,0,0,1,0-1.69c-.68.85-1.38,1.64-2.08,2.39l-.62.65a.26.26,0,0,1-.22.12.29.29,0,0,1-.25-.08.33.33,0,0,1-.16-.29.63.63,0,0,1,.12-.31,1.55,1.55,0,0,1,.24-.27l.24-.23c.52-.59,1-1.18,1.54-1.79s1-1.2,1.53-1.79l.41-.48a.39.39,0,0,1,.65.41.66.66,0,0,1-.2.29.86.86,0,0,0-.21.29,2.08,2.08,0,0,0-.17.65c0,.23-.05.47-.07.72a13.74,13.74,0,0,0,0,1.7,16.26,16.26,0,0,1,0,1.71,11.07,11.07,0,0,1-.1,1.49,3.81,3.81,0,0,1-.48,1.41,6.83,6.83,0,0,0,1.54-.8,14.23,14.23,0,0,0,1.36-1.07A13.6,13.6,0,0,0,327.37,83Z"/>
      </g>
    </g>
    <path class="e" d="M100.68,170.49c-.14-5.88.06-11.73-.88-17.52a72.77,72.77,0,0,0-5.58-18.18c-2.15-4.78-4.75-9.31-7.3-13.88-1.53-2.75-3-5.54-4.57-8.27a29.23,29.23,0,0,1-3-7,22.26,22.26,0,0,1,.83-15.42,16.53,16.53,0,0,1,8.74-8.55,18.74,18.74,0,0,1,12.45-1,30.78,30.78,0,0,1,12.38,6.29,38,38,0,0,1,9.65,11.61,25.74,25.74,0,0,1,3.06,16.15,15.27,15.27,0,0,1-4.19,8.81,16.26,16.26,0,0,1-9.57,4.79,27.24,27.24,0,0,1-8.31-.06.27.27,0,0,0-.13,0,66.31,66.31,0,0,0,3.55,10.33c4.73,11,9.16,22,12.87,33.37.12.37.34.44.65.52Q158.64,181.77,196,191a47,47,0,0,1,13,5.6,41.21,41.21,0,0,1,8.54,6.8,33.35,33.35,0,0,1,8.18,14.27c0,.06,0,.13,0,.25L127.3,195.6q14.08,48.14,28.17,96.21a5.8,5.8,0,0,1-.57-.11,36.28,36.28,0,0,1-11.3-5.11,41.48,41.48,0,0,1-5.8-4.61,40.21,40.21,0,0,1-10.89-17.64q-11.37-36.78-22.72-73.58a1.05,1.05,0,0,0-.86-.83,264.91,264.91,0,0,1-31.23-9.85,58.85,58.85,0,0,0-10.55-3.19l-2.29-.38c.06.24.12.41.16.59.35,1.63.76,3.25,1,4.9a11.2,11.2,0,0,1-.39,4.91A22,22,0,0,1,57,193.67a14.29,14.29,0,0,1-8.31,5.6,23.62,23.62,0,0,1-10.9.18,32.7,32.7,0,0,1-11.94-5.25A35.17,35.17,0,0,1,14,181a22.5,22.5,0,0,1-2.84-11.49,17.47,17.47,0,0,1,12.33-16.15,23.54,23.54,0,0,1,16.84,1c4.31,1.88,8.5,4,12.73,6.06a145.62,145.62,0,0,0,14.31,6.28,66.23,66.23,0,0,0,24.73,4.09l8.08-.3ZM27.56,184.4c.73.51,2.1,1.58,3.59,2.47a15.74,15.74,0,0,0,9.09,2.46A10.66,10.66,0,0,0,48.68,185a11.26,11.26,0,0,0,1.09-12,17.35,17.35,0,0,0-8.37-8.3,17.31,17.31,0,0,0-13-1.36,8.59,8.59,0,0,0-6.05,5.19,16.74,16.74,0,0,0-.71,3.39,10.07,10.07,0,0,0,.4,4.39C23,179.26,24.76,181.66,27.56,184.4Zm67-69.54c.84.7,1.46,1.26,2.13,1.77a12.53,12.53,0,0,0,9.16,2.76c4.38-.5,7.62-2.7,9.26-6.87,1.51-3.85.9-7.61-.93-11.21a21.85,21.85,0,0,0-6.4-7.54,17.16,17.16,0,0,0-6.29-3.07,11.29,11.29,0,0,0-6,.36,8.72,8.72,0,0,0-3.58,2,9.83,9.83,0,0,0-3,6.07C88.17,105.42,90.37,110.63,94.59,114.86Z"/>
    <path class="f" d="M103.58,333H330.2l14.57-17.23,11.93-11.92-9.94-18.56,1.33-19.88-10.6-9.27-13.26-8.62-18.55-8.61H286.46l-9.27-9.28H249.36l-23.86-4H199l-21.21,11.26c-11.64,3.52-23.33,7.52-35.06,10.5-2.71,7.8-5.52,15.57-8.31,23.35a17.72,17.72,0,0,1-3.2,6.17c-2.22,2.41-5.65,3.39-8.92,3.35-3.7-.05-7.38-2.05-11-1.14-5.78,1.43-5.78,6.44-7.67,12.11L93,293.88l-8.62,9.27V322Z"/>
  </g>
</svg>
