<svg xmlns="http://www.w3.org/2000/svg" viewBox="0 0 93.89 94.13">
  <defs>
    <style>
      .a {
        fill: #b3b3b3;
        stroke: #000;
        stroke-miterlimit: 10;
        stroke-width: 0.24px;
      }
    </style>
  </defs>
  <path class="a" d="M39.47,39.88l.06-3.74A29.73,29.73,0,0,0,37.07,24c-.86-2.05-1.9-4-2.92-6-.66-1.27-1.29-2.56-2-3.82a12.37,12.37,0,0,1-1.25-3.09,9.79,9.79,0,0,1,.53-6.7A7.23,7.23,0,0,1,35.26.81,8.45,8.45,0,0,1,41.68.7a14.23,14.23,0,0,1,5.84,3.87,16.7,16.7,0,0,1,2.82,4,11.32,11.32,0,0,1,1.08,7.66,6.46,6.46,0,0,1-2.59,4,7.51,7.51,0,0,1-4.24,1.42,12.8,12.8,0,0,1-3-.2c0,.09,0,.17,0,.24a39.45,39.45,0,0,0,2,6c1.7,4.33,3.25,8.7,4.56,13.16,0,.17.15.21.29.25q16.44,4.58,32.87,9.16a19,19,0,0,1,4.48,2,18.58,18.58,0,0,1,4.53,3.66,14.52,14.52,0,0,1,3.38,6.31s0,.06,0,.09,0,0,0,.06L50.83,51.27Q56.38,72.61,61.94,94c-.52-.17-1-.31-1.48-.49a18.11,18.11,0,0,1-10.72-12q-4.5-16.33-9-32.65a.42.42,0,0,0-.32-.34,115.47,115.47,0,0,1-13.72-4.79,25.42,25.42,0,0,0-4.51-1.51l-1-.18c.11.53.2,1,.32,1.53a6.78,6.78,0,0,1-.78,4.67,7,7,0,0,1-1.44,2.05,6.77,6.77,0,0,1-3.49,1.69,11,11,0,0,1-5.37-.44,15.42,15.42,0,0,1-5-2.8,15.14,15.14,0,0,1-4.23-5.33,10.08,10.08,0,0,1-1.1-5.09,7.69,7.69,0,0,1,5.65-6.94,10.3,10.3,0,0,1,7.36.68c1.92.9,3.79,1.93,5.67,2.91a61.82,61.82,0,0,0,6.05,2.86A29.15,29.15,0,0,0,35.7,39.92l3.53,0ZM15.5,38c-.38-.31-.75-.65-1.15-.93A7.86,7.86,0,0,0,8.16,35.7,3.91,3.91,0,0,0,5.08,38a5.13,5.13,0,0,0-.31,3,6.92,6.92,0,0,0,1.85,3.46A9.14,9.14,0,0,0,11,47.17,5.41,5.41,0,0,0,14.53,47a4.93,4.93,0,0,0,2.84-5.81A7.07,7.07,0,0,0,15.5,38Zm22-22.64c.36.32.62.58.91.8a5.46,5.46,0,0,0,4,1.34,4.63,4.63,0,0,0,4.16-2.89,5.82,5.82,0,0,0-.26-4.94A9.64,9.64,0,0,0,43.6,6.26a7.2,7.2,0,0,0-2.68-1.41,4.91,4.91,0,0,0-2.66.07,3.84,3.84,0,0,0-1.6.83,4.36,4.36,0,0,0-1.39,2.63A8,8,0,0,0,37.53,15.36Z"/>
</svg>
